<?xml version="1.0" encoding="UTF-8"?>
<svg id="_レイヤー_1" data-name=" レイヤー 1" xmlns="http://www.w3.org/2000/svg" version="1.1" viewBox="0 0 861.9 777.5">
  <defs>
    <style>
      .cls-1 {
        fill: #f881f8;
      }

      .cls-1, .cls-2, .cls-3, .cls-4, .cls-5, .cls-6, .cls-7 {
        stroke-width: 0px;
      }

      .cls-2 {
        fill: #f7931e;
      }

      .cls-2, .cls-7 {
        isolation: isolate;
        opacity: .5;
      }

      .cls-3 {
        fill: #2269aa;
      }

      .cls-4, .cls-5 {
        fill: #fefefe;
      }

      .cls-5 {
        display: none;
      }

      .cls-6 {
        fill: #fff;
      }

      .cls-7 {
        fill: #009245;
      }
    </style>
  </defs>
  <g id="_レイヤー_3" data-name=" レイヤー 3">
    <path class="cls-7" d="M369.6,535s43.9-65.5,208-86.5c171.7-22,268.7,42,268.7,42l-118.1-204.7s-24.2-58.6-91-75.5-98.2-15.7-162.4,15.5c-64.1,31.3-82.8,90.3-82.8,90.3l-22.4,218.9Z"/>
  </g>
  <g id="_レイヤー_2" data-name=" レイヤー 2">
    <path class="cls-2" d="M111.8,274.8s47.9-26.9,133.1-20c102.8,8.4,148.3,60.5,148.3,60.5l-23.6,219.7s-47.4-47.5-174.9-35.1c-98.3,9.6-182.2,74.4-182.2,74.4l99.3-299.6h0Z"/>
  </g>
  <g id="_レイヤー_4" data-name=" レイヤー 4">
    <path class="cls-3" d="M12.6,574.4c26.9,63.9,59.7,124.6,96.7,183.2,41.9-61.2,30.8-93.8,100.4-119.3,33.1-12.1,72.8-26.9,102.9-8.7,8.4,6.8,6.5,20.7,8.4,31.3,36.3-3.2,72.8-4.6,109.3-4.4-2.6-15.1,5.3-31.5,18.8-38.8,9.7-5.3,21.3-5.9,32.2-4.8,18.8,1.8,35.1,7.2,50.6,17.8,0,0,128.5,79.1,171.4,119,58.1-77.3,83.8-182.6,142.9-259.1,0,0-97-64-268.7-42-164.1,21-208,86.5-208,86.5,0,0-47.4-47.5-174.9-35.1-98.3,9.6-182.2,74.4-182.2,74.4h.2Z"/>
    <path class="cls-6" d="M826.2,535l-24.1,44.7s-30-24.4-95.3-35.6c-88.1-15.1-175,4.8-175,4.8,0,0,89.3-42.2,156.3-38.6,40.4,2.2,138.2,24.6,138.2,24.6h-.1Z"/>
    <path class="cls-6" d="M-25.3,718.7l41.4,21.3s21-37.8,68.7-83.5c80.3-76.8,147.5-81,147.5-81,0,0-85.5,6.4-146.4,47.3-48.8,32.8-111.1,95.9-111.1,95.9h-.1Z"/>
  </g>
  <g id="_レイヤー_5" data-name=" レイヤー 5">
    <g>
      <path class="cls-6" d="M412.5,516.3c.2-1.7,1.4-2.6,1-4.5,9,.6,247.7,33.8,255,33l4-3c-.3-2.7.4-76.3,0-76.5-.7-1.4-4.7-3.6-6-4.5-50-2.3-140.3-7.7-189-12-10.2-1.2-24.8-1.8-35-3-8.3-.6-21.9-1.1-30-3-1.2-3.9-1.1-15.3-1-19.5,0-5.4-1.2-9.9,4-12.5.2,1.5,17.8,1.8,19,2,21.6,1.2,47.4,2.6,69,4,28.4,1.8,58.5,5.7,87,6l3-3V148.8l-2-2-2-1-44,5c2.1-4.5,50.4-85.7,51-87,1.3-2.5,1.1-6.4,0-8.5,3-7.1-83.3-17.5-86-19.6,0,0-59.1,125.3-59,127l-69,7c1.8-3.6,10.9-6.9,14.5-8.8,5.3-2.7,24.6-12.8,29-15.4,5.1-3.1,7.2-7.9,5.5-12.2-11.3-21.3-29.6-64.4-51-78.5-9.4,3.6-35.1,19.1-45.5,25-5.9,3.1-18.3,7.4-14,16,1.2,2.1,32.8,70.1,35.5,74,.7,3.1-1.6,3.1-4,4l-79,9h-5c4-7.8,37.2-22.3,33.5-31-7.3-14.9-33.1-54.6-43.5-65h-8c-55.7,44.2-53.1,22.6-26,69.5,1.2,2.9,15.7,28.1,14,28.5-3.7-.3-13.2.7-17,1-5.3.9-12.8,1.4-12,8.5,1.5,37.7.9,119.5,1,157.5-1.8,1.6-.2,17.2,0,18.5.9,6.9-3.2,26.2,1,30.5,8.2,1.6,114.2,5.9,123,6,1.4,2.7,1,13.9,1,17s1.3,10.5-1,13c-4.4.3-13.6-.4-18-1-11.8-1-28.1-2.3-40-3-35.4-2.4-71.7-7-107-10l-2,2v36c0,7.1-2.3,17.8,4,22,4.3.6,13.6,1.6,18,2,15.4,1.8,32.6,3.2,48,5,18.3,2.3,37.7,4.7,56,7,12.2,1.2,25.8,4,38,4,3.6,1.8,2.6,1.9,2.5,5,.7,9,0,17.7.5,26.5-.9,11.8-1.4,32.7-1,45.5-.2,4.2.1,7.4,0,10.5-.9,2.5-.6,2.6,1,4.5,26.1,5.1,51.9,9.7,78,15l2-2M423.5,227.8l74-5c-.4,1.9,1,6.7,1,8v16.5c0,2.8-1.4,5-1,7.5l-5,1-80,3c-.5-4-1-25-1-25-1.1-7.1,7.7-6,12-6h0ZM269.5,259.3c0-4.7-1.2-16.7,2-21.5l63-4c2.2,2.4,1,25,1,25,.3,2.5-2.2,3.1-4,4l-58,3c-2.8-1.4-3.8-3.4-4-6.5ZM271.5,347.8c-3.5-6.2-1.9-16.2-2-25,.5-3.6,1.5-4.7,5-6h58c5.1,3,2.3,11.1,3,16,0,3.8,1.7,13.2-1,16-3.1-.2-62.1.7-63-1ZM416.5,350.8c-1.3-.7-2.7-1.3-4-2-3-5.5-1.4-28.4,0-32l3-1h81c3.3,3.4,1.7,22.2,2,22.5,0,0-.3,12.1-3,13.5-17.4.3-61.1-.6-79-1Z"/>
      <g>
        <path class="cls-5" d="M642,596.8H52V12.8h590v584ZM209.8,163.4c-2.4.7-4.5,1.6-6.6,1.8-4.9.5-9.9.6-14.8,1.1-6.2.6-8.8,3.6-8.8,10.1s.9,6.2.9,9.3c0,43.3.1,86.7.1,130s-.1,37.2-.2,55.8c0,3.6.9,6.7,5.3,7,14.4.7,28.7,1.4,43.1,2,17.8.7,35.7,1.3,53.5,2.1,5.9.2,11.9.7,17.8,1,3.7.1,5.3,1.5,5.1,5.4-.3,6.1,0,12.3,0,18.4s-1.3,8.7-8.9,8c-16.1-1.4-32.1-2.7-48.2-4-5.1-.4-10.2-.7-15.3-1.1-13.8-1.2-27.5-2.5-41.3-3.9-8.2-.8-16.3-1.9-24.5-2.8-7.7-.8-15.4-1.6-23.1-2.1-4-.3-6.1,1.6-6,5.9.1,14.6,0,29.2,0,43.8s2.2,7.5,6.8,8.2c3.3.5,6.5.7,9.8,1,11.6,1.3,23.2,2.5,34.9,3.8,10.2,1.1,20.3,2.1,30.5,3.4,14.7,1.8,29.4,3.7,44.1,5.6,11.6,1.5,23.2,2.9,34.8,4.3,4.3.5,5.6,2.6,5.5,6.9-.6,25.5-.8,51-1.2,76.6,0,7,.7,7.6,7.6,9,21.8,4.1,43.6,8.3,65.4,12.6,5.6,1.1,6.8.4,6.7-5.6-.3-22-.7-44.1-1-66.1,0-6,.4-12-.2-17.9-.5-4.5,1.3-5.1,5-4.6,7,1,14,1.9,21,2.8,11.8,1.5,23.6,2.8,35.3,4.3,14.7,1.8,29.4,3.8,44.1,5.6,11.6,1.5,23.2,2.8,34.8,4.4,15.3,2.1,30.6,4.4,45.9,6.6,12.9,1.9,25.7,3.8,38.6,5.6,7.7,1.1,15.3,2.4,23,3.3,8.5.9,11.6-2.1,11.6-10.6v-60.8c0-6.6-.7-8.3-7.6-9.2-11.7-1.5-23.6-2.2-35.4-3-15.8-1.1-31.6-2-47.4-3-19.2-1.3-38.5-2.6-57.7-4-16.9-1.2-33.8-2.5-50.7-4-18.7-1.6-37.3-3.3-56-4.9-3.8-.3-5.7-1.9-5.5-6,.2-4.8,0-9.6,0-14.4,0-8.3,4.2-12.1,12.6-11.5h.5c17.5,1,34.9,1.9,52.4,3,19.3,1.2,38.5,2.7,57.7,4,16.5,1.1,32.9,2.1,49.4,3.1,6.3.4,8.9-1.8,8.8-8.3,0-9.3-.7-18.5-.9-27.8-.4-16.9-1-33.8-1-50.7,0-43.3.5-86.6,1-129.9.2-16.2.7-32.5,1-48.7,0-6.1-1.9-8.2-8-7.9-5.2.2-10.4,1.2-15.7,1.7-7.9.7-15.8,1.2-24.9,1.9,1.3-2.8,1.8-4.4,2.6-5.7,4.2-7.1,8.6-14.1,12.8-21.3,11.7-20,23.3-40.1,34.8-60.2,3.4-6,1.5-9.7-5.2-11.1-23.4-5.1-46.9-10-70.3-14.9-7.3-1.5-11.2.5-13.7,6.7-5.3,12.8-10.1,25.8-15.9,38.4-11.6,25.4-23.7,50.6-35.7,75.7-.9,1.8-3.1,3.8-5,4.1-10.7,1.8-21.4,3.2-32.1,4.6-7.8,1-15.6,1.9-23.5,2.7-4.6.5-9.2.6-13.8.9l-.2-1.7c2.8-1.6,5.7-3.3,8.5-4.8,12.3-6.7,24.7-13.3,37-20,6-3.3,7.2-6.6,4.1-13-4.5-9.4-9-18.8-14.2-27.7-8.2-13.8-16.5-27.6-25.8-40.7-4.7-6.7-7.6-8.2-15.9-3.4-13.3,7.7-26.9,14.9-40.1,22.7s-12.7,7.9-5.5,21.9c8.5,16.7,16.5,33.8,24.5,50.8,2.6,5.6,4.3,11.6,6.7,18.3-31.3,3.7-61.4,7.4-91.8,9.3,2.1-2.6,4.4-4.5,6.8-6.3,8-5.8,16.1-11.5,24.1-17.3,3.5-2.5,4.8-5.6,2.4-9.8-3.1-5.3-5.3-11-8.7-16-9.8-14.2-19.8-28.2-30.2-41.9-4.1-5.3-7.2-5.3-12.8-1.3-10.7,7.7-21.2,15.7-31.8,23.6-11.9,8.9-12.6,7.4-2.8,22,10.2,15.2,19.5,30.9,26.7,48.8h.3Z"/>
        <path class="cls-1" d="M209.8,163.4c-7.2-17.9-16.5-33.6-26.7-48.8-9.7-14.6-9.1-13.1,2.8-22,10.6-7.9,21.1-15.8,31.8-23.6,5.5-4,8.7-4.1,12.8,1.3,10.4,13.7,20.4,27.8,30.2,41.9,3.4,5,5.7,10.8,8.7,16,2.4,4.2,1.1,7.2-2.4,9.8-8,5.8-16.1,11.5-24.1,17.3-2.4,1.7-4.6,3.6-6.8,6.3,30.4-1.9,60.4-5.7,91.8-9.3-2.4-6.7-4.1-12.7-6.7-18.3-7.9-17-15.9-34.1-24.5-50.8-7.2-14-7.7-14.1,5.5-21.9,13.2-7.8,26.8-15.1,40.1-22.7,8.3-4.8,11.2-3.3,15.9,3.4,9.2,13.1,17.6,26.9,25.8,40.7,5.3,8.9,9.8,18.3,14.2,27.7,3.1,6.5,1.9,9.7-4.1,13-12.3,6.8-24.7,13.3-37,20-2.9,1.6-5.7,3.2-8.5,4.8l.2,1.7c4.6-.3,9.2-.4,13.8-.9,7.8-.8,15.7-1.6,23.5-2.7,10.7-1.4,21.5-2.8,32.1-4.6,1.9-.3,4.1-2.3,5-4.1,12.1-25.2,24.1-50.4,35.7-75.7,5.8-12.6,10.6-25.6,15.9-38.4,2.5-6.1,6.4-8.2,13.7-6.7,23.5,4.9,46.9,9.9,70.3,14.9,6.7,1.4,8.6,5.1,5.2,11.1-11.4,20.2-23.1,40.2-34.8,60.2-4.2,7.2-8.6,14.2-12.8,21.3-.8,1.4-1.3,2.9-2.6,5.7,9.1-.7,17-1.2,24.9-1.9,5.2-.5,10.4-1.4,15.7-1.7,6-.3,8.1,1.8,8,7.9-.2,16.2-.8,32.5-1,48.7-.4,43.3-.8,86.6-1,129.9,0,16.9.6,33.8,1,50.7.2,9.3.8,18.5.9,27.8,0,6.4-2.5,8.7-8.8,8.3-16.5-1-32.9-2-49.4-3.1-19.3-1.3-38.5-2.7-57.7-4-17.5-1.1-34.9-2-52.4-3h-.5c-8.4-.6-12.6,3.2-12.6,11.5s.2,9.6,0,14.4c-.2,4.1,1.7,5.6,5.5,6,18.7,1.6,37.3,3.4,56,4.9,16.9,1.4,33.8,2.7,50.7,4,19.2,1.4,38.5,2.7,57.7,4,15.8,1.1,31.6,1.9,47.4,3,11.8.8,23.7,1.5,35.4,3,6.9.9,7.6,2.5,7.6,9.2v60.8c0,8.5-3.1,11.6-11.6,10.6-7.7-.8-15.3-2.1-23-3.3-12.9-1.9-25.7-3.8-38.6-5.6-15.3-2.2-30.6-4.5-45.9-6.6-11.6-1.6-23.2-2.9-34.8-4.4-14.7-1.9-29.4-3.8-44.1-5.6-11.8-1.5-23.6-2.8-35.3-4.3-7-.9-14-1.8-21-2.8-3.7-.5-5.4,0-5,4.6.6,5.9.1,11.9.2,17.9.3,22,.7,44.1,1,66.1,0,5.9-1.1,6.7-6.7,5.6-21.8-4.2-43.6-8.4-65.4-12.6-6.9-1.3-7.7-2-7.6-9,.3-25.5.6-51.1,1.2-76.6,0-4.3-1.2-6.4-5.5-6.9-11.6-1.4-23.2-2.8-34.8-4.3-14.7-1.8-29.4-3.8-44.1-5.6-10.1-1.2-20.3-2.3-30.5-3.4-11.6-1.3-23.2-2.5-34.9-3.8-3.3-.4-6.6-.6-9.8-1-4.6-.7-6.9-3.4-6.8-8.2v-43.8c0-4.4,2.1-6.2,6-5.9,7.7.5,15.4,1.3,23.1,2.1,8.2.9,16.3,2,24.5,2.8,13.7,1.4,27.5,2.6,41.3,3.9,5.1.5,10.2.7,15.3,1.1,16.1,1.3,32.2,2.5,48.2,4,7.6.7,8.9-.3,8.9-8s-.2-12.3,0-18.4c.2-4-1.5-5.3-5.1-5.4-5.9-.2-11.9-.7-17.8-1-17.8-.7-35.7-1.3-53.5-2.1-14.4-.6-28.7-1.3-43.1-2-4.3-.2-5.3-3.3-5.3-7,0-18.6.2-37.2.2-55.8,0-43.3,0-86.7-.1-130,0-3.1-.9-6.2-.9-9.3,0-6.5,2.5-9.5,8.8-10.1,4.9-.5,9.9-.6,14.8-1.1,2.1-.2,4.2-1.1,6.6-1.8h-.3ZM425.1,293.8h-37.8c-4.5,0-6.7,1.5-6.5,6.4.3,7.3,0,14.6,0,21.9s2,7.6,7.8,7.6h74.1c3.8,0,4.9-1.5,4.9-5-.1-8.6-.2-17.2,0-25.9,0-3.9-1.4-5.2-5.3-5.1-12.4.2-24.9,0-37.3,0h0ZM398,237.2v-1.1c13.1,0,26.1.3,39.2,0,8.9-.2,17.7-1.4,26.6-1.9,3.1-.2,3.9-1.8,3.9-4.5v-21.4c0-8.1-1.2-8.8-9.4-8-12.6,1.2-25.2,2-37.9,3-11.8.9-23.6,1.8-35.4,3.1-1.5.2-3.8,2.8-3.9,4.4-.4,7.4-.1,14.9-.2,22.4,0,3,1.3,4.2,4.2,4.1h12.9,0ZM272.3,294.8h-28.4c-2.6,0-4.6.3-4.6,3.6,0,8-.1,15.9.2,23.9,0,1.5,2.1,4,3.4,4.2,6.7.7,13.5,1.2,20.2,1.1,12.4,0,24.8-.6,37.2-.7,3.7,0,5-1.5,4.9-5.1-.1-7.3-.2-14.6,0-21.9,0-3.8-1.2-5.4-5.2-5.3-9.3.2-18.6,0-27.9,0l.2.2ZM305.1,212.5c-1.5-.2-2.1-.3-2.8-.3-16.7.7-33.3,1.3-50,2-2.9.1-6,.3-8.8,1.1-1.6.5-3.9,2.3-4,3.6-.4,7.6-.3,15.3,0,22.9,0,.9,1.9,2.5,2.9,2.4,12.1-.3,24.1-.7,36.2-1.2,7.1-.3,14.2-.5,21.2-1.1,1.8-.2,4.9-2.1,5-3.3.4-8.6.2-17.2.2-26.1h0Z"/>
        <path class="cls-5" d="M425.1,293.8c12.4,0,24.9.1,37.3,0,3.9,0,5.4,1.2,5.3,5.1-.2,8.6-.1,17.2,0,25.9,0,3.5-1.1,5.1-4.9,5-24.7-.1-49.4,0-74.1,0s-7.8-2.1-7.8-7.6.2-14.6,0-21.9c-.2-4.9,2-6.4,6.5-6.4h37.8,0Z"/>
        <path class="cls-4" d="M398,237.2h-12.9c-2.9,0-4.3-1.1-4.2-4.1,0-7.5-.2-14.9.2-22.4,0-1.6,2.4-4.3,3.9-4.4,11.8-1.3,23.6-2.1,35.4-3.1,12.6-1,25.3-1.8,37.9-3,8.2-.8,9.4,0,9.4,8v21.4c0,2.7-.8,4.3-3.9,4.5-8.9.5-17.7,1.7-26.6,1.9-13,.3-26.1,0-39.2,0v1.1h0Z"/>
        <path class="cls-4" d="M272.3,294.8c9.3,0,18.6.1,27.9,0,4,0,5.3,1.5,5.2,5.3-.2,7.3-.2,14.6,0,21.9,0,3.6-1.3,5-4.9,5.1-12.4.1-24.8.7-37.2.7s-13.5-.4-20.2-1.1c-1.3-.1-3.3-2.7-3.4-4.2-.3-7.9-.1-15.9-.2-23.9,0-3.4,2-3.6,4.6-3.6h28.4l-.2-.2Z"/>
        <path class="cls-4" d="M305.1,212.5c0,8.9.2,17.5-.2,26.1,0,1.2-3.1,3.1-5,3.3-7.1.7-14.2.9-21.2,1.1-12,.5-24.1,1-36.2,1.2-1,0-2.9-1.6-2.9-2.4-.2-7.6-.4-15.3,0-22.9,0-1.3,2.4-3.2,4-3.6,2.8-.8,5.8-1,8.8-1.1,16.7-.7,33.3-1.4,50-2,.6,0,1.3.1,2.8.3h0Z"/>
      </g>
    </g>
  </g>
</svg>